<svg width="782" height="800" viewBox="0 0 782 800" fill="none" xmlns="http://www.w3.org/2000/svg">
<path d="M431.419 362.257C440.153 356.878 449.164 351.626 458.162 346.353C467.23 341.19 476.277 335.999 485.307 331.113C489.799 328.631 494.284 326.215 498.744 323.871C503.187 321.527 507.58 319.177 511.942 316.97C529.345 308.002 545.861 300.104 560.213 293.684C574.564 287.243 586.749 282.285 595.395 278.999C599.69 277.324 603.164 276.163 605.487 275.307C607.844 274.499 609.102 274.078 609.102 274.078C609.102 274.078 608.093 274.946 606.23 276.587C604.327 278.173 601.582 280.591 597.984 283.482C590.816 289.315 580.431 297.4 567.682 306.612C554.942 315.828 539.841 326.179 523.378 336.759C519.283 339.445 515.059 342.075 510.792 344.748C506.534 347.443 502.207 350.118 497.806 352.764C489.059 358.156 480.042 363.384 471.042 368.653C461.974 373.812 452.929 378.992 443.887 383.873C442.899 384.422 441.917 384.918 440.928 385.454C489.368 393.958 620.579 411.877 690.069 371.755C847.773 280.703 761.385 265.927 726.847 206.099C692.303 146.273 722.689 64.0665 564.99 155.119C495.515 195.24 445.422 317.825 428.56 364.033C429.516 363.439 430.441 362.84 431.419 362.257Z" fill="#FFC0CB"/>
<path d="M443.887 416.123C452.929 421.004 461.974 426.188 471.042 431.343C480.042 436.614 489.059 441.847 497.813 447.232C502.207 449.878 506.538 452.555 510.796 455.248C515.059 457.928 519.283 460.544 523.375 463.23C539.845 473.821 554.944 484.164 567.682 493.386C580.429 502.595 590.816 510.673 597.984 516.51C601.582 519.399 604.327 521.825 606.23 523.403C608.101 525.048 609.102 525.918 609.102 525.918C609.102 525.918 607.843 525.493 605.489 524.687C603.159 523.835 599.694 522.668 595.397 520.995C586.757 517.705 574.564 512.755 560.213 506.312C545.865 499.888 529.345 491.99 511.949 483.024C507.579 480.819 503.189 478.469 498.744 476.118C494.284 473.785 489.798 471.363 485.307 468.879C476.277 463.997 467.226 458.806 458.162 453.643C449.164 448.37 440.155 443.118 431.419 437.739C430.441 437.156 429.52 436.555 428.555 435.961C445.418 482.168 495.511 604.752 564.99 644.871C722.697 735.915 692.303 653.715 726.847 593.891C761.383 534.061 847.77 519.276 690.069 428.234C620.584 388.113 489.372 406.033 440.928 414.527C441.917 415.078 442.898 415.574 443.887 416.123Z" fill="#FFC0CB"/>
<path d="M403.483 453.867C403.766 464.124 403.81 474.562 403.882 484.99C403.814 495.418 403.793 505.845 403.497 516.115C403.413 521.244 403.263 526.34 403.048 531.374C402.866 536.403 402.697 541.374 402.429 546.262C401.479 565.813 400.081 584.061 398.467 599.707C396.86 615.348 395.055 628.386 393.585 637.515C392.886 642.068 392.151 645.656 391.739 648.108C391.247 650.549 390.992 651.856 390.992 651.856C390.992 651.856 390.74 650.549 390.246 648.108C389.832 645.66 389.104 642.075 388.403 637.515C386.935 628.386 385.125 615.348 383.518 599.707C381.911 584.065 380.507 565.813 379.561 546.266C379.29 541.378 379.119 536.403 378.94 531.374C378.724 526.34 378.572 521.244 378.49 516.115C378.194 505.845 378.177 495.42 378.106 484.992C378.177 474.562 378.224 464.128 378.503 453.867C378.53 452.739 378.572 451.639 378.615 450.509C347.033 488.212 265.915 592.883 265.915 673.12C265.917 855.214 321.912 787.798 390.987 787.8C460.067 787.796 516.062 855.212 516.062 673.12C516.062 592.883 434.946 488.21 403.364 450.509C403.413 451.639 403.457 452.737 403.483 453.867Z" fill="#FFC0CB"/>
<path d="M350.583 437.743C341.847 443.12 332.836 448.374 323.84 453.647C314.772 458.808 305.723 464.001 296.693 468.885C292.202 471.367 287.716 473.785 283.256 476.127C278.813 478.469 274.419 480.823 270.056 483.03C252.653 491.994 236.135 499.899 221.785 506.316C207.434 512.759 195.243 517.713 186.603 521.001C182.306 522.674 178.834 523.84 176.509 524.691C174.153 525.502 172.896 525.922 172.896 525.922C172.896 525.922 173.899 525.052 175.766 523.411C177.671 521.829 180.416 519.409 184.014 516.514C191.182 510.675 201.572 502.6 214.316 493.39C227.056 484.172 242.157 473.821 258.621 463.241C262.717 460.557 266.941 457.928 271.207 455.252C275.464 452.562 279.793 449.882 284.192 447.236C292.943 441.847 301.958 436.618 310.96 431.349C320.028 426.192 329.071 421.01 338.113 416.127C339.102 415.581 340.086 415.086 341.074 414.535C292.633 406.044 161.421 388.124 91.9314 428.245C-65.7723 519.295 20.6153 534.075 55.1531 593.901C89.6971 653.729 59.309 735.925 217.008 644.883C286.494 604.762 336.584 482.177 353.445 435.97C352.486 436.561 351.559 437.163 350.583 437.743Z" fill="#FFC0CB"/>
<path d="M338.113 383.877C329.071 378.994 320.028 373.814 310.96 368.655C301.958 363.384 292.943 358.156 284.192 352.769C279.793 350.123 275.462 347.445 271.207 344.752C266.941 342.075 262.717 339.448 258.623 336.766C242.155 326.179 227.054 315.834 214.316 306.614C201.574 297.403 191.182 289.325 184.014 283.488C180.416 280.595 177.671 278.175 175.766 276.595C173.897 274.95 172.896 274.08 172.896 274.08C172.896 274.08 174.153 274.503 176.509 275.312C178.836 276.165 182.304 277.328 186.601 279.001C195.243 282.289 207.434 287.245 221.785 293.686C236.132 300.11 252.653 308.004 270.051 316.974C274.419 319.179 278.811 321.531 283.256 323.876C287.716 326.215 292.202 328.633 296.693 331.117C305.723 336.001 314.774 341.192 323.84 346.355C332.836 351.628 341.847 356.88 350.583 362.257C351.559 362.842 352.48 363.443 353.445 364.035C336.584 317.83 286.491 195.244 217.008 155.123C59.3069 64.0791 89.6971 146.279 55.1552 206.107C20.6195 265.935 -65.7681 280.718 91.9335 371.762C161.419 411.885 292.63 393.965 341.076 385.475C340.086 384.924 339.102 384.424 338.113 383.877Z" fill="#FFC0CB"/>
<path d="M378.515 346.131C378.234 335.87 378.192 325.44 378.118 315.008C378.188 304.578 378.207 294.155 378.5 283.885C378.585 278.754 378.739 273.66 378.952 268.626C379.132 263.598 379.301 258.627 379.571 253.738C380.519 234.187 381.922 215.94 383.531 200.296C385.14 184.654 386.945 171.614 388.413 162.487C389.114 157.93 389.845 154.344 390.259 151.894C390.749 149.451 391.004 148.146 391.004 148.146C391.004 148.146 391.255 149.451 391.752 151.894C392.164 154.342 392.896 157.928 393.597 162.487C395.061 171.614 396.873 184.654 398.48 200.296C400.089 215.937 401.491 234.187 402.439 253.738C402.71 258.622 402.879 263.598 403.058 268.626C403.273 273.66 403.426 278.754 403.51 283.885C403.806 294.155 403.82 304.578 403.894 315.008C403.823 325.44 403.774 335.87 403.497 346.131C403.47 347.263 403.426 348.363 403.388 349.491C434.967 311.788 516.083 207.117 516.083 126.881C516.083 -55.2139 460.086 12.2018 391.008 12.2018C321.931 12.2018 265.936 -55.2139 265.936 126.881C265.936 207.117 347.054 311.79 378.634 349.491C378.587 348.363 378.545 347.263 378.515 346.131Z" fill="#FFC0CB"/>
</svg>
