<svg width="756" height="800" viewBox="0 0 756 800" fill="none" xmlns="http://www.w3.org/2000/svg">
<path d="M746.148 149.581C738.256 139.925 726.423 134.3 713.927 134.3H171.211L152.731 70.8376L152.717 70.7985C144.227 42.3969 120.934 20.8938 91.9625 14.686L25.636 0.464118C14.386 -1.93744 3.32347 5.21256 0.921904 16.4485C-1.4781 27.6704 5.67034 38.7469 16.9078 41.1485L83.2344 55.3688C97.375 58.3922 108.717 68.886 112.856 82.7219L234.089 499.205C231.356 500.477 228.73 501.87 226.183 503.383C213.103 511.17 202.625 522.1 195.594 534.863C188.881 547 185.3 560.744 184.967 574.924H184.902V577.086H184.955C185.233 588.149 187.58 598.789 191.694 608.484C198.247 623.978 209.15 637.099 222.894 646.397C236.638 655.683 253.325 661.136 271.113 661.122H661.066C672.567 661.122 681.878 651.809 681.878 640.322C681.878 628.834 672.566 619.508 661.066 619.508H271.113C264.891 619.508 259.081 618.274 253.763 616.019C245.791 612.65 238.931 606.972 234.116 599.834C229.5 592.989 226.794 584.897 226.555 576.036C226.794 565.464 230.163 556.297 236.078 548.963C239.156 545.169 242.925 541.852 247.513 539.106C252.05 536.4 257.383 534.266 263.644 532.911L655.613 469.105C681.241 464.927 701.591 445.359 706.764 419.93L754.705 184.23V184.202C755.261 181.47 755.555 178.684 755.542 175.925C755.555 166.416 752.277 157.089 746.148 149.581Z" fill="#100716"/>
<path d="M319.253 694.977C310.126 688.783 298.984 685.159 287.15 685.159C279.27 685.159 271.67 686.766 264.784 689.684C254.464 694.047 245.736 701.317 239.553 710.47C233.358 719.597 229.723 730.739 229.736 742.573C229.736 750.453 231.342 758.055 234.247 764.939C238.623 775.261 245.881 784.002 255.034 790.183C264.173 796.364 275.316 800.013 287.15 800C295.03 800.013 302.619 798.394 309.501 795.475C319.836 791.098 328.564 783.856 334.745 774.702C340.927 765.548 344.562 754.406 344.562 742.573C344.562 734.694 342.944 727.105 340.052 720.234C335.677 709.9 328.42 701.172 319.253 694.977ZM308.481 751.594C306.731 755.719 303.786 759.288 300.072 761.781C296.356 764.288 292.006 765.72 287.151 765.734C283.914 765.734 280.917 765.084 278.158 763.917C274.019 762.18 270.436 759.208 267.942 755.508C265.45 751.792 264.017 747.428 264.003 742.573C264.017 739.336 264.653 736.339 265.82 733.58C267.558 729.441 270.517 725.872 274.23 723.378C277.945 720.872 282.295 719.439 287.151 719.425C290.389 719.439 293.386 720.075 296.145 721.242C300.284 722.992 303.853 725.938 306.361 729.652C308.855 733.367 310.286 737.717 310.286 742.573C310.286 745.823 309.65 748.822 308.481 751.594Z" fill="#100716"/>
<path d="M634.148 694.977C625.009 688.783 613.878 685.159 602.047 685.159C594.167 685.159 586.551 686.766 579.681 689.684C569.361 694.047 560.631 701.317 554.437 710.47C548.242 719.597 544.606 730.739 544.62 742.573C544.62 750.453 546.226 758.055 549.144 764.939C553.522 775.261 560.765 784.002 569.917 790.183C579.07 796.364 590.214 800.013 602.047 800C609.925 800.013 617.512 798.394 624.384 795.475C634.719 791.098 643.461 783.856 649.642 774.702C655.823 765.548 659.458 754.406 659.458 742.573C659.458 734.694 657.839 727.105 654.934 720.234C650.558 709.9 643.301 701.172 634.148 694.977ZM623.378 751.594C621.626 755.719 618.669 759.288 614.967 761.781C611.253 764.288 606.901 765.72 602.048 765.734C598.798 765.734 595.786 765.084 593.026 763.917C588.914 762.18 585.333 759.208 582.839 755.508C580.345 751.792 578.898 747.428 578.886 742.573C578.886 739.336 579.548 736.339 580.703 733.58C582.44 729.441 585.411 725.872 589.1 723.378C592.815 720.872 597.192 719.439 602.048 719.425C605.284 719.439 608.281 720.075 611.042 721.242C615.18 722.992 618.736 725.938 621.242 729.652C623.736 733.367 625.183 737.717 625.183 742.573C625.181 745.823 624.545 748.822 623.378 751.594Z" fill="#100716"/>
</svg>
